<?xml version="1.0" encoding="utf-8"?>
<!-- Generator: Adobe Illustrator 25.3.1, SVG Export Plug-In . SVG Version: 6.00 Build 0)  -->
<svg version="1.1" id="Layer_1" xmlns="http://www.w3.org/2000/svg" xmlns:xlink="http://www.w3.org/1999/xlink" x="0px" y="0px"
	 viewBox="0 0 800 800" style="enable-background:new 0 0 800 800;" xml:space="preserve">
<style type="text/css">
	.st0{fill:#FFFFFF;}
	.st1{fill-rule:evenodd;clip-rule:evenodd;fill:#FFFFFF;}
</style>
<path class="st0" d="M98.9,330.7c0.3,2.9,0.6,5.7,1,8.7l5,45.2c3.5,31.7,6.6,59.3,11.9,81.2c5.7,23.6,15.2,45.9,34.9,63.5
	c19.7,17.7,42.9,24.6,67,27.7c22.4,2.9,50.1,2.9,82.1,2.9h214c21.9,0,41.2,0,57.4-1.6c17.5-1.8,34.5-5.7,50.8-15.5
	c16.3-9.8,27.8-23,37.5-37.6c9-13.5,18-30.6,28.3-49.9l99.5-187.9c35.3-66.7-13-147-88.5-147H296c-39.3,0-72.9,0-99.5,3.7
	c-13.5,1.9-26.7,4.9-39,10l-5.7-51.7c-5.2-46.6-44.6-81.9-91.5-81.9h-20c-22.1,0-40,17.9-40,40c0,22.1,17.9,40,40,40h20
	c6.2,0,11.4,4.6,12.1,10.8L98.9,330.7z"/>
<path class="st1" d="M479.9,699.8c0-55.2,44.7-99.9,99.9-99.9c55.2,0,99.9,44.7,99.9,99.9c0,55.2-44.7,99.9-99.9,99.9
	C524.6,799.7,479.9,754.9,479.9,699.8z"/>
<path class="st1" d="M120.2,699.8c0-55.2,44.7-99.9,99.9-99.9s99.9,44.7,99.9,99.9c0,55.2-44.7,99.9-99.9,99.9
	S120.2,754.9,120.2,699.8z"/>
</svg>
