<?xml version="1.0" encoding="UTF-8"?>
<svg id="Capa_1" data-name="Capa 1" xmlns="http://www.w3.org/2000/svg" viewBox="0 0 1080 1080">
  <defs>
    <style>
      .cls-1 {
        letter-spacing: -.03em;
      }

      .cls-2 {
        font-family: Montserrat-Medium, Montserrat;
        font-size: 55.62px;
        font-variation-settings: 'wght' 500;
        font-weight: 500;
      }

      .cls-2, .cls-3 {
        fill: #fff;
      }

      .cls-4 {
        fill: #523d91;
      }
    </style>
  </defs>
  <rect class="cls-4" width="1080" height="1080"/>
  <g>
    <g>
      <path class="cls-3" d="M314.49,620.2v-14.16c12.67-.5,22.23-1.8,28.7-3.91,6.46-2.11,10.74-6.15,12.86-12.11,2.11-5.96,3.17-14.78,3.17-26.46v-173.66c0-11.67-.87-20.43-2.61-26.27-1.74-5.83-5.28-9.88-10.62-12.11-5.35-2.24-13.36-3.6-24.04-4.1v-14.16h130.81c22.36,0,42.98,3.67,61.86,10.99,18.88,7.33,35.27,17.64,49.19,30.93,13.91,13.29,24.72,29.01,32.42,47.14,7.7,18.14,11.55,37.89,11.55,59.25,0,27.08-6.28,51.06-18.82,71.92-12.55,20.87-29.88,37.21-51.99,49.01-22.12,11.8-47.7,17.7-76.77,17.7h-145.71ZM404.68,351.51c-4.23,0-6.34,2.11-6.34,6.34v201.61c0,28.32,18.51,42.48,55.53,42.48,33.78,0,59.81-10.18,78.07-30.56,18.26-20.37,27.39-50.06,27.39-89.07,0-27.58-4.35-51.11-13.04-70.62-8.7-19.5-21.06-34.41-37.08-44.72-16.02-10.31-35.09-15.47-57.2-15.47h-47.33Z"/>
      <path class="cls-3" d="M757.31,505.05c-5.47-9.69-15.09-19.13-28.88-28.32-13.79-9.19-32.98-19.25-57.58-30.19-21.12-9.44-35.9-18.32-44.35-26.65-8.45-8.32-12.67-18.32-12.67-30,0-12.42,4.47-22.42,13.42-30,8.94-7.58,20.99-11.37,36.15-11.37s29.5,4.97,40.81,14.91c11.3,9.94,19.94,25.1,25.9,45.47h13.79l-4.1-74.16h-8.57l-9.69,16.77c-18.63-14.66-38.38-21.99-59.25-21.99-16.4,0-30.87,3.35-43.42,10.06-12.55,6.71-22.36,16.02-29.44,27.95-3.43,5.78-6.03,11.98-7.8,18.58,9.07,10.75,16.46,22.82,22.14,36.2,6.43,15.16,10.17,31.45,11.23,48.87,11.38,7.41,26.26,15.22,44.67,23.43,16.89,7.21,30.06,13.92,39.5,20.12,9.44,6.21,16.08,12.61,19.94,19.19,3.85,6.59,5.78,14.1,5.78,22.55,0,14.66-5.35,26.4-16.02,35.22-10.69,8.82-25.22,13.23-43.6,13.23-22.36,0-41.18-6.39-56.46-19.19-7.64-6.4-13.8-14.02-18.49-22.87-5.83,8.08-12.47,15.39-19.94,21.91l2.1,31.33h8.57l10.43-18.26c11.67,9.19,23.16,15.84,34.47,19.94,11.3,4.1,24.04,6.15,38.2,6.15,20.12,0,37.76-3.6,52.92-10.81,15.15-7.2,27.02-17.14,35.59-29.81,8.57-12.67,12.86-27.33,12.86-43.97,0-13.17-2.74-24.6-8.2-34.29Z"/>
    </g>
    <text class="cls-2" transform="translate(311.13 725.28)"><tspan x="0" y="0">INDUMEN</tspan><tspan class="cls-1" x="287.88" y="0">T</tspan><tspan x="318.58" y="0">ARIA</tspan></text>
  </g>
</svg>