<svg id="Capa_1" data-name="Capa 1" xmlns="http://www.w3.org/2000/svg" width="457.74" height="299.4" viewBox="0 0 457.74 299.4"><defs><style>.cls-1{fill:#fff;}</style></defs><path class="cls-1" d="M3.36,293.18V279q19-.75,28.7-3.92T44.91,263q3.17-8.94,3.17-26.46V62.87q0-17.52-2.61-26.27A18,18,0,0,0,34.85,24.48q-8-3.35-24-4.09V6.22h130.8q33.54,0,61.86,11a147.75,147.75,0,0,1,49.19,30.93A140.32,140.32,0,0,1,285.1,95.29q11.53,27.21,11.55,59.26,0,40.62-18.82,71.92a131.7,131.7,0,0,1-52,49q-33.17,17.71-76.77,17.71ZM93.55,24.48q-6.35,0-6.34,6.34V232.43q0,42.48,55.53,42.49,50.67,0,78.07-30.56t27.39-89.07q0-41.37-13-70.62T198.08,40q-24-15.47-57.2-15.47Z"/><path class="cls-1" d="M446.18,178Q438,163.49,417.3,149.7t-57.58-30.19Q328,105.37,315.37,92.87a40.63,40.63,0,0,1-12.67-30q0-18.63,13.42-30T352.27,21.5q23.84,0,40.81,14.91T419,81.88h13.78l-4.1-74.17h-8.57L410.4,24.48q-27.94-22-59.25-22-24.6,0-43.41,10.06A74,74,0,0,0,270.5,59.09a141.65,141.65,0,0,1,22.14,36.2,146.63,146.63,0,0,1,11.23,48.87q17.07,11.13,44.67,23.43,25.33,10.82,39.5,20.12T408,206.9a43.88,43.88,0,0,1,5.78,22.55q0,22-16,35.22t-43.6,13.23q-33.54,0-56.46-19.2a75.75,75.75,0,0,1-18.49-22.86,129.64,129.64,0,0,1-19.94,21.9l2.1,31.34h8.57l10.43-18.26q17.52,13.79,34.48,19.93T353,296.9q30.19,0,52.92-10.8t35.59-29.82q12.86-19,12.86-44Q454.38,192.55,446.18,178Z"/></svg>