<svg id="Capa_1" data-name="Capa 1" xmlns="http://www.w3.org/2000/svg" width="457.74" height="405.53" viewBox="0 0 457.74 405.53"><defs><style>.cls-1,.cls-2{fill:#fff;}.cls-2{font-size:55.62px;}.cls-3{letter-spacing:-0.03em;}</style></defs><path class="cls-1" d="M3.36,295.67V281.51q19-.74,28.7-3.91t12.85-12.11q3.17-8.94,3.17-26.46V65.37q0-17.52-2.61-26.28A18,18,0,0,0,34.85,27q-8-3.35-24-4.1V8.72h130.8q33.54,0,61.86,11a147.89,147.89,0,0,1,49.2,30.93A140.44,140.44,0,0,1,285.1,97.79Q296.64,125,296.65,157q0,40.62-18.82,71.93a131.7,131.7,0,0,1-52,49q-33.17,17.71-76.77,17.7ZM93.55,27q-6.35,0-6.34,6.34V234.93q0,42.48,55.53,42.48,50.67,0,78.07-30.56t27.39-89.06q0-41.37-13-70.62T198.08,42.45Q174,27,140.88,27Z"/><path class="cls-1" d="M446.18,180.52Q438,166,417.3,152.2T359.72,122Q328,107.85,315.38,95.37a40.6,40.6,0,0,1-12.68-30q0-18.63,13.42-30T352.27,24q23.85,0,40.81,14.91T419,84.37h13.78l-4.09-74.16h-8.58L410.4,27Q382.46,5,351.15,5q-24.6,0-43.41,10.06A74,74,0,0,0,270.5,61.59a141.65,141.65,0,0,1,22.14,36.2,146.58,146.58,0,0,1,11.23,48.87q17.07,11.11,44.67,23.43,25.33,10.8,39.5,20.12T408,209.4A43.88,43.88,0,0,1,413.76,232q0,22-16,35.22t-43.6,13.22q-33.54,0-56.46-19.19a75.79,75.79,0,0,1-18.49-22.87,129.71,129.71,0,0,1-19.94,21.91l2.1,31.33h8.57l10.43-18.26q17.52,13.8,34.48,19.94T353,299.4q30.19,0,52.92-10.81t35.59-29.81q12.86-19,12.86-44Q454.38,195.05,446.18,180.52Z"/><text class="cls-2" transform="translate(0 400.75)">INDUMEN<tspan class="cls-3" x="287.88" y="0">T</tspan><tspan x="318.58" y="0">ARIA</tspan></text></svg>